<svg width="22" height="24" viewBox="0 0 22 24" fill="none" xmlns="http://www.w3.org/2000/svg">
<path d="M10.8326 0.000438011C10.6396 0.00702919 10.4538 0.0751717 10.3022 0.194909L1.72548 6.95188C0.636926 7.80976 0 9.12066 0 10.5066V22.0263C0 22.8492 0.685762 23.5349 1.50862 23.5349H7.5431C8.36596 23.5349 9.05172 22.8492 9.05172 22.0263V15.9918C9.05172 15.8138 9.1754 15.6901 9.35345 15.6901H12.3707C12.5487 15.6901 12.6724 15.8138 12.6724 15.9918V22.0263C12.6724 22.8492 13.3582 23.5349 14.181 23.5349H20.2155C21.0384 23.5349 21.7241 22.8492 21.7241 22.0263V10.5066C21.7241 9.12066 21.0872 7.80976 19.9987 6.95188L11.4219 0.194909C11.2545 0.0626782 11.0458 -0.00619464 10.8326 0.000438011ZM10.8621 2.05829L18.879 8.37446C19.5332 8.89003 19.9138 9.6742 19.9138 10.5066V21.7246H14.4828V15.9918C14.4828 14.8362 13.5263 13.8798 12.3707 13.8798H9.35345C8.19787 13.8798 7.24138 14.8362 7.24138 15.9918V21.7246H1.81034V10.5066C1.81034 9.6742 2.19096 8.89003 2.84516 8.37446L10.8621 2.05829Z" fill="#47CB84"/>
</svg>
