<svg width="35" height="17" viewBox="0 0 35 17" fill="none" xmlns="http://www.w3.org/2000/svg">
<path d="M17.5 0C14.2917 0 11.6667 2.55 11.6667 5.66667C11.6667 7.38438 12.4915 8.91172 13.7448 9.95208C12.5007 10.5852 11.4115 11.5414 10.6458 12.6792C10.2311 12.0948 9.68424 11.5547 9.07812 11.1562C9.94401 10.3328 10.5 9.19505 10.5 7.93333C10.5 5.44089 8.39909 3.4 5.83333 3.4C3.26758 3.4 1.16667 5.44089 1.16667 7.93333C1.16667 9.19505 1.72266 10.3328 2.58854 11.1562C1.03451 12.1789 0 13.9232 0 15.8667H2.33333C2.33333 13.9896 3.90104 12.4667 5.83333 12.4667C7.76562 12.4667 9.33333 13.9896 9.33333 15.8667V17H11.6667C11.6667 13.8789 14.2871 11.3333 17.5 11.3333C20.7129 11.3333 23.3333 13.8789 23.3333 17H25.6667V15.8667C25.6667 13.9896 27.2344 12.4667 29.1667 12.4667C31.099 12.4667 32.6667 13.9896 32.6667 15.8667H35C35 13.9232 33.9655 12.1789 32.4115 11.1562C33.2773 10.3328 33.8333 9.19505 33.8333 7.93333C33.8333 5.44089 31.7324 3.4 29.1667 3.4C26.6009 3.4 24.5 5.44089 24.5 7.93333C24.5 9.19505 25.056 10.3328 25.9219 11.1562C25.3158 11.5547 24.7689 12.0948 24.3542 12.6792C23.5885 11.5414 22.4993 10.5852 21.2552 9.95208C22.5085 8.91172 23.3333 7.38438 23.3333 5.66667C23.3333 2.55 20.7083 0 17.5 0ZM17.5 2.26667C19.446 2.26667 21 3.7763 21 5.66667C21 7.55703 19.446 9.06667 17.5 9.06667C15.554 9.06667 14 7.55703 14 5.66667C14 3.7763 15.554 2.26667 17.5 2.26667ZM5.83333 5.66667C7.13672 5.66667 8.16667 6.66719 8.16667 7.93333C8.16667 9.19948 7.13672 10.2 5.83333 10.2C4.52995 10.2 3.5 9.19948 3.5 7.93333C3.5 6.66719 4.52995 5.66667 5.83333 5.66667ZM29.1667 5.66667C30.4701 5.66667 31.5 6.66719 31.5 7.93333C31.5 9.19948 30.4701 10.2 29.1667 10.2C27.8633 10.2 26.8333 9.19948 26.8333 7.93333C26.8333 6.66719 27.8633 5.66667 29.1667 5.66667Z" fill="#FF6737"/>
</svg>
