<svg width="26" height="23" viewBox="0 0 26 23" fill="none" xmlns="http://www.w3.org/2000/svg">
<path d="M2.6 0C1.1635 0 0 1.14361 0 2.55556V20.4444C0 21.8564 1.1635 23 2.6 23H13H23.4C24.8365 23 26 21.8564 26 20.4444V7.66667C26 6.25472 24.8365 5.11111 23.4 5.11111H13V2.55556C13 1.14361 11.8365 0 10.4 0H2.6ZM2.6 2.55556H5.2V5.11111H2.6V2.55556ZM7.8 2.55556H10.4V5.11111H7.8V2.55556ZM2.6 7.66667H5.2V10.2222H2.6V7.66667ZM7.8 7.66667H10.4V10.2222H7.8V7.66667ZM13 7.66667H23.4V20.4444H13V17.8889H15.6V15.3333H13V12.7778H15.6V10.2222H13V7.66667ZM18.2 10.2222V12.7778H20.8V10.2222H18.2ZM2.6 12.7778H5.2V15.3333H2.6V12.7778ZM7.8 12.7778H10.4V15.3333H7.8V12.7778ZM18.2 15.3333V17.8889H20.8V15.3333H18.2ZM2.6 17.8889H5.2V20.4444H2.6V17.8889ZM7.8 17.8889H10.4V20.4444H7.8V17.8889Z" fill="#FF0000"/>
</svg>
