<svg width="22" height="23" viewBox="0 0 22 23" fill="none" xmlns="http://www.w3.org/2000/svg">
<path d="M3.66667 0C2.31611 0 1.22222 1.14361 1.22222 2.55556V9.29883C0.494225 9.74128 0 10.5558 0 11.5V23H2.44444V20.4444H19.5556V23H22V11.5C22 10.5558 21.5058 9.74128 20.7778 9.29883V2.55556C20.7778 1.14361 19.6839 0 18.3333 0H3.66667ZM3.66667 2.55556H18.3333V8.94444H15.8889V6.38889C15.8889 5.68356 15.3413 5.11111 14.6667 5.11111H7.33333C6.65867 5.11111 6.11111 5.68356 6.11111 6.38889V8.94444H3.66667V2.55556ZM2.44444 11.5H19.5556V17.8889H2.44444V11.5Z" fill="#B972FF"/>
</svg>
