<svg width="25" height="25" viewBox="0 0 25 25" fill="none" xmlns="http://www.w3.org/2000/svg">
<path d="M23.5295 0.00589901C23.3114 0.0322476 23.1609 0.122586 23.0782 0.276912L19.287 7.38348L22.2357 8.70844L24.9738 1.15018C25.0941 0.818939 24.7895 0.382306 24.2817 0.156462C24.0297 0.0435402 23.7476 -0.0204495 23.5295 0.00589901ZM1.44427 3.80009C0.646911 3.80009 0 4.44751 0 5.24549C0 6.04347 0.646911 6.69089 1.44427 6.69089C2.24162 6.69089 2.88853 6.04347 2.88853 5.24549C2.88853 4.44751 2.24162 3.80009 1.44427 3.80009ZM5.77706 4.76369C5.24675 4.76369 4.81422 5.19656 4.81422 5.72729C4.81422 6.25802 5.24675 6.69089 5.77706 6.69089C6.30738 6.69089 6.73991 6.25802 6.73991 5.72729C6.73991 5.19656 6.30738 4.76369 5.77706 4.76369ZM17.2409 8.16641C16.0675 8.14383 14.9203 8.83265 14.4126 9.97317L23.5897 14.0384C24.2667 12.5177 23.5709 10.7373 22.0551 10.0635C21.7317 9.92047 18.7078 8.58046 18.3843 8.43742C18.0044 8.26804 17.6321 8.17394 17.2409 8.16641ZM5.29564 8.6181C3.96797 8.6181 2.88853 9.69839 2.88853 11.0271C2.88853 12.3558 3.96797 13.4361 5.29564 13.4361C6.62331 13.4361 7.70275 12.3558 7.70275 11.0271C7.70275 9.69839 6.62331 8.6181 5.29564 8.6181ZM13.6303 11.3885C12.5922 13.3909 10.5123 14.5954 8.45498 15.273C7.42819 15.6117 6.42774 15.8225 5.62662 15.9355C4.8255 16.0484 4.15603 16.0634 4.03191 16.0559C3.65204 16.0296 3.29097 16.2328 3.1142 16.5753C2.93743 16.9141 2.9788 17.3244 3.21951 17.6218C8.9552 24.7057 17.7524 24.9993 17.7524 24.9993C18.0571 25.0106 18.3467 24.8751 18.5347 24.638C18.5347 24.638 21.0923 21.5063 23.018 15.6343L21.1826 15.0321C19.5314 20.0646 17.6885 22.5113 17.3011 23.0119C16.8611 22.978 15.8117 22.8614 14.4427 22.5C14.879 22.0182 15.7214 20.9718 16.6091 18.9467C14.0929 21.2691 12.6035 21.6343 11.9453 21.6568C11.1893 21.3482 10.4333 20.9793 9.62844 20.5126C10.0196 20.155 10.6063 19.5 11.2833 18.2541C10.3769 19.2027 9.18463 19.5753 8.3948 19.7296C7.6012 19.1801 6.81137 18.5477 6.04786 17.8024C6.92044 17.6745 7.95851 17.4712 9.05675 17.1098C11.3849 16.342 13.9725 14.9417 15.3453 12.2918L13.6303 11.3885Z" fill="#2B8CFF"/>
</svg>
